<svg width="20" height="21" viewBox="0 0 20 21" fill="none" xmlns="http://www.w3.org/2000/svg">
<path d="M17.4214 9.19906C17.4214 8.95809 17.3195 8.71698 17.1206 8.53207C17.1019 8.51473 17.0858 8.49502 17.0688 8.47641L11.5278 3.34164V3.34067C10.732 2.60468 9.48777 2.55943 8.63623 3.20395L8.47119 3.34164L2.86963 8.53305C2.67129 8.71786 2.56982 8.95844 2.56982 9.19906V16.3397L2.58154 16.5692C2.70234 17.705 3.71099 18.6412 5.00732 18.6414H14.9829C16.3657 18.6414 17.4214 17.576 17.4214 16.3397V9.19906ZM19.2212 16.3397C19.2212 18.6407 17.2878 20.4413 14.9829 20.4413H5.00732C2.77479 20.441 0.89062 18.7518 0.774902 16.5545L0.769043 16.3397V9.19906C0.769043 8.44082 1.09237 7.72741 1.64502 7.21371L1.646 7.21274L7.24854 2.02133L7.39502 1.89145C8.88809 0.639083 11.112 0.639015 12.605 1.89145L12.7515 2.02133L18.354 7.21274C18.3912 7.24722 18.4243 7.28479 18.4546 7.32406C18.9395 7.82739 19.2212 8.49288 19.2212 9.19906V16.3397Z" fill="white" fill-opacity="0.7"/>
<path d="M11.6382 14.3936C11.638 14.155 11.4427 13.9592 11.2036 13.959H8.79736C8.55878 13.9592 8.36301 14.1544 8.36279 14.3936V18.6367H11.6382V14.3936ZM13.439 19.5361C13.439 20.0332 13.0356 20.4365 12.5386 20.4365H7.4624C6.96535 20.4365 6.56201 20.0332 6.56201 19.5361V14.3936C6.56222 13.1564 7.56855 12.1584 8.79736 12.1582H11.2036C12.4407 12.1585 13.4388 13.1648 13.439 14.3936V19.5361Z" fill="white" fill-opacity="0.7"/>
</svg>
