<svg width="22" height="21" viewBox="0 0 22 21" fill="none" xmlns="http://www.w3.org/2000/svg">
<path d="M20.1396 1.5293L20.2725 1.53613C20.928 1.60267 21.4395 2.15598 21.4395 2.8291C21.4395 3.50222 20.928 4.05553 20.2725 4.12207L20.1396 4.12891H8.13965C7.42168 4.12891 6.83984 3.54707 6.83984 2.8291C6.83984 2.11113 7.42168 1.5293 8.13965 1.5293H20.1396Z" fill="white" fill-opacity="0.7"/>
<path d="M20.1396 9.53809L20.2725 9.54492C20.928 9.61146 21.4395 10.1648 21.4395 10.8379C21.4395 11.511 20.928 12.0643 20.2725 12.1309L20.1396 12.1377H8.13965C7.42168 12.1377 6.83984 11.5559 6.83984 10.8379C6.83984 10.1199 7.42168 9.53809 8.13965 9.53809H20.1396Z" fill="white" fill-opacity="0.7"/>
<path d="M20.1396 17.5479L20.2725 17.5547C20.928 17.6212 21.4395 18.1745 21.4395 18.8477C21.4395 19.5208 20.928 20.0741 20.2725 20.1406L20.1396 20.1475H8.13965C7.42168 20.1475 6.83984 19.5656 6.83984 18.8477C6.83984 18.1297 7.42168 17.5479 8.13965 17.5479H20.1396Z" fill="white" fill-opacity="0.7"/>
<path fill-rule="evenodd" clip-rule="evenodd" d="M2.32422 0.824219C3.42879 0.824219 4.32422 1.71965 4.32422 2.82422V2.83333C4.32422 3.9379 3.42879 4.83333 2.32422 4.83333C1.21965 4.83333 0.324219 3.9379 0.324219 2.83333V2.82422C0.324219 1.71965 1.21965 0.824219 2.32422 0.824219Z" fill="white" fill-opacity="0.7"/>
<path fill-rule="evenodd" clip-rule="evenodd" d="M2.32422 8.83301C3.42879 8.83301 4.32422 9.72844 4.32422 10.833V10.8421C4.32422 11.9467 3.42879 12.8421 2.32422 12.8421C1.21965 12.8421 0.324219 11.9467 0.324219 10.8421V10.833C0.324219 9.72844 1.21965 8.83301 2.32422 8.83301Z" fill="white" fill-opacity="0.7"/>
<path fill-rule="evenodd" clip-rule="evenodd" d="M2.32422 16.8428C3.42879 16.8428 4.32422 17.7382 4.32422 18.8428V18.8519C4.32422 19.9565 3.42879 20.8519 2.32422 20.8519C1.21965 20.8519 0.324219 19.9565 0.324219 18.8519V18.8428C0.324219 17.7382 1.21965 16.8428 2.32422 16.8428Z" fill="white" fill-opacity="0.7"/>
</svg>
