<svg width="19" height="20" viewBox="0 0 19 20" fill="none" xmlns="http://www.w3.org/2000/svg">
<path d="M11.6514 10.0029C11.6514 8.81352 10.6874 7.84964 9.49805 7.84961C8.30862 7.84961 7.34473 8.8135 7.34473 10.0029C7.34476 11.1923 8.30864 12.1562 9.49805 12.1562C10.6874 12.1562 11.6513 11.1923 11.6514 10.0029ZM13.4512 10.0029C13.4511 12.1864 11.6815 13.956 9.49805 13.9561C7.31453 13.9561 5.54398 12.1864 5.54395 10.0029C5.54395 7.81939 7.31451 6.04883 9.49805 6.04883C11.6816 6.04886 13.4512 7.81941 13.4512 10.0029Z" fill="white" fill-opacity="0.7"/>
<path d="M10.6413 0.243164C11.7335 0.243164 12.9708 0.906006 13.3278 2.07129L13.5095 2.66309C13.6253 2.7253 13.7409 2.79072 13.8561 2.85938L14.4538 2.72168L14.6765 2.68262C15.7863 2.54091 16.8701 3.24086 17.3825 4.13281L18.5261 6.11426H18.5251C19.0758 7.06163 19.1144 8.46566 18.2849 9.35449L18.2839 9.35352L17.8679 9.80176C17.8705 9.8676 17.8747 9.93493 17.8747 10.0029C17.8747 10.0705 17.8704 10.1377 17.8679 10.2031L18.2868 10.6543V10.6553L18.4313 10.8271C19.1032 11.7171 19.0363 13.001 18.527 13.8896L18.5261 13.8926L17.3825 15.873C16.836 16.8246 15.6389 17.5582 14.4538 17.2842V17.2832L13.8571 17.1455C13.7415 17.2144 13.6257 17.2803 13.5095 17.3428L13.3278 17.9346C12.9709 19.1001 11.7336 19.7627 10.6413 19.7627H8.35516C7.26254 19.7627 6.02418 19.0997 5.66766 17.9336V17.9326L5.48602 17.3428C5.36982 17.2803 5.25394 17.2144 5.13837 17.1455L4.54169 17.2842C3.35668 17.558 2.16043 16.8245 1.61395 15.873L0.470399 13.8926L0.471375 13.8916C-0.0791352 12.9443 -0.117671 11.5411 0.71161 10.6523L1.12763 10.2031C1.12506 10.1377 1.12177 10.0705 1.12177 10.0029C1.12177 9.93494 1.12503 9.86759 1.12763 9.80176L0.709656 9.35156H0.70868C-0.114211 8.46194 -0.073884 7.06398 0.469422 6.11621L0.470399 6.11426L1.61395 4.13281C2.1605 3.18155 3.35683 2.44793 4.54169 2.72168L5.13934 2.85938C5.25454 2.79071 5.3702 2.72531 5.48602 2.66309L5.66766 2.07227L5.74481 1.86035C6.1784 0.826403 7.33069 0.243164 8.35516 0.243164H10.6413ZM8.35516 2.04395C7.84358 2.04395 7.45849 2.37311 7.38934 2.59863V2.59961L7.09637 3.55273C7.03268 3.76019 6.89663 3.9365 6.71454 4.05078L6.63446 4.0957C6.33346 4.24414 6.05576 4.39723 5.80243 4.56738C5.59596 4.70599 5.34165 4.75302 5.0993 4.69727L4.13739 4.47559H4.13641C3.90408 4.42197 3.42622 4.59128 3.1745 5.03027L3.17352 5.03223L2.02997 7.01367C1.77738 7.45635 1.86967 7.95343 2.02997 8.12793L2.7077 8.85938C2.87789 9.04291 2.96373 9.28946 2.94501 9.53906C2.93131 9.72171 2.92158 9.86518 2.92157 10.0029C2.92157 10.1409 2.93128 10.2848 2.94501 10.4678L2.94794 10.5605C2.94266 10.7466 2.87907 10.9263 2.76727 11.0752L2.7077 11.1465L2.02997 11.8779L2.02802 11.8799C1.88615 12.0319 1.79771 12.4337 1.94794 12.8232L2.02802 12.9893L2.02997 12.9922L3.17352 14.9736L3.1745 14.9756L3.27899 15.1279C3.5423 15.4536 3.93318 15.5772 4.13641 15.5303H4.13739L5.0993 15.3086L5.19012 15.293C5.40412 15.2664 5.62167 15.3172 5.80243 15.4385L5.99774 15.5635C6.06395 15.604 6.13169 15.6436 6.20087 15.6826L6.63446 15.9102L6.71454 15.9551C6.89662 16.0693 7.03262 16.2458 7.09637 16.4531L7.38934 17.4062V17.4072L7.42938 17.4961C7.55617 17.7103 7.90735 17.9629 8.35516 17.9629H10.6413C11.1531 17.9629 11.5382 17.6328 11.6071 17.4072V17.4062L11.9001 16.4531L11.9313 16.3662C12.0152 16.1685 12.1676 16.006 12.362 15.9102L12.7956 15.6826C12.9341 15.6045 13.0665 15.5235 13.1931 15.4385L13.2731 15.3906C13.4635 15.2896 13.6851 15.2598 13.8972 15.3086L14.8591 15.5303H14.86L14.9577 15.54C15.2083 15.5375 15.6017 15.3597 15.822 14.9756L15.8229 14.9736L16.9665 12.9922C17.2192 12.5489 17.1262 12.0507 16.9655 11.877V11.876L16.2888 11.1465C16.1186 10.963 16.0318 10.7173 16.0505 10.4678C16.0642 10.2848 16.0749 10.1409 16.0749 10.0029C16.0749 9.86516 16.0642 9.72175 16.0505 9.53906C16.0318 9.28946 16.1186 9.04291 16.2888 8.85938L16.9665 8.12793L16.9684 8.12598L17.0251 8.0459C17.1478 7.82793 17.1906 7.39845 16.9684 7.01758L16.9665 7.01367L15.8229 5.03223L15.822 5.03027C15.5703 4.59132 15.0925 4.42208 14.86 4.47559H14.8591L13.8972 4.69727C13.6547 4.7531 13.3996 4.70611 13.1931 4.56738C12.9398 4.39734 12.6629 4.24407 12.362 4.0957C12.1675 3.99977 12.0151 3.83747 11.9313 3.63965L11.9001 3.55273L11.6071 2.59961V2.59863C11.538 2.37311 11.1529 2.04395 10.6413 2.04395H8.35516Z" fill="white" fill-opacity="0.7"/>
</svg>
