<svg width="24" height="25" viewBox="0 0 24 25" fill="none" xmlns="http://www.w3.org/2000/svg">
<path fill-rule="evenodd" clip-rule="evenodd" d="M12 2.69531C13.1046 2.69531 14 3.59074 14 4.69531V4.70443C14 5.809 13.1046 6.70443 12 6.70443C10.8954 6.70443 10 5.809 10 4.70443V4.69531C10 3.59074 10.8954 2.69531 12 2.69531Z" fill="white" fill-opacity="0.7"/>
<path fill-rule="evenodd" clip-rule="evenodd" d="M12 10.7041C13.1046 10.7041 14 11.5995 14 12.7041V12.7132C14 13.8178 13.1046 14.7132 12 14.7132C10.8954 14.7132 10 13.8178 10 12.7132V12.7041C10 11.5995 10.8954 10.7041 12 10.7041Z" fill="white" fill-opacity="0.7"/>
<path fill-rule="evenodd" clip-rule="evenodd" d="M12 18.7139C13.1046 18.7139 14 19.6093 14 20.7139V20.723C14 21.8276 13.1046 22.723 12 22.723C10.8954 22.723 10 21.8276 10 20.723V20.7139C10 19.6093 10.8954 18.7139 12 18.7139Z" fill="white" fill-opacity="0.7"/>
</svg>
